<svg xmlns="http://www.w3.org/2000/svg" version="1.1" xmlns:xlink="http://www.w3.org/1999/xlink" xmlns:svgjs="http://svgjs.dev/svgjs" width="1500" height="935" viewBox="0 0 1500 935"><g transform="matrix(1,0,0,1,-0.9090909090909918,0.3785425101214628)"><svg viewBox="0 0 396 247" data-background-color="#575c5f" preserveAspectRatio="xMidYMid meet" height="935" width="1500" xmlns="http://www.w3.org/2000/svg" xmlns:xlink="http://www.w3.org/1999/xlink"><g id="tight-bounds" transform="matrix(1,0,0,1,0.2400000000000091,-0.09999999999999432)"><svg viewBox="0 0 395.52 247.2" height="247.2" width="395.52"><g><svg></svg></g><g><svg viewBox="0 0 395.52 247.2" height="247.2" width="395.52"><mask id="da9fae74-86f8-4fa0-99f7-5761a606642d"><rect width="640" height="400" fill="white"></rect><g transform="matrix(1,0,0,1,71.6174109533127,48.36521739130434)"><svg viewBox="0 0 252.28517809337458 150.4695652173913" height="150.4695652173913" width="252.28517809337458"><g><svg viewBox="0 0 252.28517809337458 150.4695652173913" height="150.4695652173913" width="252.28517809337458"><g><svg viewBox="0 0 275.14434782608697 164.10337976371687" height="150.4695652173913" width="252.28517809337458"><g><svg viewBox="0 0 275.14434782608697 164.10337976371687" height="164.10337976371687" width="275.14434782608697"><g id="SvgjsG1511"><svg viewBox="0 0 275.14434782608697 164.10337976371687" height="164.10337976371687" width="275.14434782608697" id="SvgjsSvg1510"><g><svg viewBox="0 0 275.14434782608697 96.31262131467248" height="96.31262131467248" width="275.14434782608697"><g transform="matrix(1,0,0,1,0,0)"><svg width="275.14434782608697" viewBox="-0.6000000000000001 -36.3 114.69 40.8" height="96.31262131467248" data-palette-color="#ffcb73"><path d="M3.4 0.5L3.7-1.8Q5.65-2.1 6.38-2.98 7.1-3.85 7.1-6L7.1-6 7.15-27Q7.15-28.6 6.78-29.15 6.4-29.7 5.3-29.7L5.3-29.7Q4.8-29.7 4.3-29.65 3.8-29.6 3.6-29.6L3.6-29.6 3.5-29.8 3.85-32Q4.45-31.95 6.1-31.9 7.75-31.85 9.45-31.85L9.45-31.85Q10.8-31.85 12.53-32.02 14.25-32.2 14.8-32.3L14.8-32.3 14.6-30.05Q12.95-29.85 12.33-29.4 11.7-28.95 11.58-28.35 11.45-27.75 11.3-25.4L11.3-25.4Q11-21.15 10.85-15.7 10.7-10.25 10.7-6.1L10.7-6.1Q10.7-4.3 11-3.53 11.3-2.75 12.13-2.5 12.95-2.25 14.95-2.25L14.95-2.25Q18-2.25 19.43-2.75 20.85-3.25 21.58-4.7 22.3-6.15 22.9-9.35L22.9-9.35 25.1-9.6 25.25-9.35Q25.1-8.55 24.63-5.75 24.15-2.95 23.8 0.15L23.8 0.15 23.55 0.45Q22.1 0.35 17.57 0.18 13.05 0 10.1 0L10.1 0Q7.75 0 5.83 0.2 3.9 0.4 3.4 0.5L3.4 0.5ZM38.9 0.45Q35.5 0.45 32.87-1.05 30.25-2.55 28.82-5.3 27.4-8.05 27.4-11.65L27.4-11.65Q27.4-15.55 29.17-18.68 30.95-21.8 34.02-23.58 37.1-25.35 40.9-25.35L40.9-25.35Q44.35-25.35 47-23.85 49.65-22.35 51.1-19.63 52.55-16.9 52.55-13.3L52.55-13.3Q52.55-9.4 50.77-6.28 49-3.15 45.87-1.35 42.75 0.45 38.9 0.45L38.9 0.45ZM40.1-1.95Q43.75-1.95 46-4.58 48.25-7.2 48.25-11.55L48.25-11.55Q48.25-14.85 47.17-17.35 46.1-19.85 44.12-21.2 42.15-22.55 39.55-22.55L39.55-22.55Q36-22.55 33.82-19.95 31.65-17.35 31.65-13L31.65-13Q31.65-9.7 32.7-7.2 33.75-4.7 35.67-3.33 37.6-1.95 40.1-1.95L40.1-1.95ZM68.69 0.45Q63.2 0.45 59.92-2.83 56.64-6.1 56.64-11.65L56.64-11.65Q56.64-15.75 58.45-18.85 60.24-21.95 63.52-23.65 66.8-25.35 71.09-25.35L71.09-25.35Q72.64-25.35 74.42-25.15 76.19-24.95 77.47-24.7 78.75-24.45 79.09-24.4L79.09-24.4 79.3-24.1Q79.25-23.85 79.02-22.93 78.8-22 78.57-20.53 78.34-19.05 78.25-17.4L78.25-17.4 75.8-17.2Q75.8-17.4 75.84-17.98 75.89-18.55 75.89-19.3L75.89-19.3Q75.89-21.05 74.55-21.83 73.19-22.6 70.14-22.6L70.14-22.6Q65.69-22.6 63.32-20.13 60.95-17.65 60.95-12.95L60.95-12.95Q60.95-7.9 63.3-4.98 65.64-2.05 69.64-2.05L69.64-2.05Q71.05-2.05 72.19-2.35 73.34-2.65 74.02-2.95 74.69-3.25 74.84-3.35L74.84-3.35 74.84-7.75Q74.84-9 74.42-9.4 74-9.8 72.69-9.8L72.69-9.8 70.05-9.8 69.94-10 70.34-12.2Q70.55-12.2 72.22-12.15 73.89-12.1 75.64-12.1L75.64-12.1Q76.8-12.1 77.92-12.18 79.05-12.25 79.34-12.3L79.34-12.3 79.55-11.2Q78.75-10.6 78.47-9.35 78.19-8.1 78.19-5.05L78.19-5.05Q78.19-2.8 78.44-1.65L78.44-1.65 78.19-1.25Q77.84-1.1 76.57-0.7 75.3-0.3 73.19 0.08 71.09 0.45 68.69 0.45L68.69 0.45ZM96.44 0.45Q93.04 0.45 90.42-1.05 87.79-2.55 86.37-5.3 84.94-8.05 84.94-11.65L84.94-11.65Q84.94-15.55 86.72-18.68 88.49-21.8 91.57-23.58 94.64-25.35 98.44-25.35L98.44-25.35Q101.89-25.35 104.54-23.85 107.19-22.35 108.64-19.63 110.09-16.9 110.09-13.3L110.09-13.3Q110.09-9.4 108.32-6.28 106.54-3.15 103.42-1.35 100.29 0.45 96.44 0.45L96.44 0.45ZM97.64-1.95Q101.29-1.95 103.54-4.58 105.79-7.2 105.79-11.55L105.79-11.55Q105.79-14.85 104.72-17.35 103.64-19.85 101.67-21.2 99.69-22.55 97.09-22.55L97.09-22.55Q93.54-22.55 91.37-19.95 89.19-17.35 89.19-13L89.19-13Q89.19-9.7 90.24-7.2 91.29-4.7 93.22-3.33 95.14-1.95 97.64-1.95L97.64-1.95Z" opacity="1" transform="matrix(1,0,0,1,0,0)" fill="black" class="wordmark-text-0" id="SvgjsPath1509" stroke-width="7" stroke="black" stroke-linejoin="round"></path></svg></g></svg></g><g transform="matrix(1,0,0,1,3.5,115.050732550226)"><svg viewBox="0 0 268.14434782608697 49.05264721349088" height="49.05264721349088" width="268.14434782608697"><g transform="matrix(1,0,0,1,0,0)"><svg width="268.14434782608697" viewBox="-1.85 -40 290.84000000000003 54" height="49.05264721349088" data-palette-color="#ffcb73"><path d="M19.6 0.35L19.6 0.35Q15.9 0.35 12.73-0.95 9.55-2.25 7.18-4.63 4.8-7 3.48-10.28 2.15-13.55 2.15-17.5L2.15-17.5Q2.15-21.45 3.48-24.73 4.8-28 7.18-30.38 9.55-32.75 12.73-34.05 15.9-35.35 19.6-35.35L19.6-35.35Q23.25-35.35 26.43-34.05 29.6-32.75 31.95-30.38 34.3-28 35.63-24.73 36.95-21.45 36.95-17.5L36.95-17.5Q36.95-13.55 35.63-10.28 34.3-7 31.95-4.63 29.6-2.25 26.43-0.95 23.25 0.35 19.6 0.35ZM19.6-3.15L19.6-3.15Q23.35-3.15 26.35-4.9 29.35-6.65 31.1-9.88 32.85-13.1 32.85-17.5L32.85-17.5Q32.85-21.95 31.1-25.18 29.35-28.4 26.35-30.13 23.35-31.85 19.6-31.85L19.6-31.85Q15.8-31.85 12.78-30.13 9.75-28.4 8-25.18 6.25-21.95 6.25-17.5L6.25-17.5Q6.25-13.1 8-9.88 9.75-6.65 12.78-4.9 15.8-3.15 19.6-3.15ZM43.75 0L43.75-25 47.2-25 47.4-21.45Q48.6-23.3 50.55-24.33 52.5-25.35 55.1-25.35L55.1-25.35Q57.95-25.35 60.1-24.13 62.25-22.9 63.45-20.48 64.65-18.05 64.65-14.4L64.65-14.4 64.65 0 60.9 0 60.9-13.95Q60.9-17.85 59.23-19.88 57.55-21.9 54.4-21.9L54.4-21.9Q51.15-21.9 49.33-19.75 47.5-17.6 47.5-13.4L47.5-13.4 47.5 0 43.75 0ZM72.76 0L72.76-36 76.51-36 76.51 0 72.76 0ZM85.76 0L85.76-25 89.46-25 89.46 0 85.76 0ZM87.66-30L87.66-30Q86.51-30 85.76-30.75 85.01-31.5 85.01-32.6L85.01-32.6Q85.01-33.75 85.76-34.5 86.51-35.25 87.66-35.25L87.66-35.25Q88.71-35.25 89.49-34.5 90.26-33.75 90.26-32.6L90.26-32.6Q90.26-31.5 89.49-30.75 88.71-30 87.66-30ZM98.77 0L98.77-25 102.22-25 102.42-21.45Q103.62-23.3 105.57-24.33 107.52-25.35 110.12-25.35L110.12-25.35Q112.97-25.35 115.12-24.13 117.27-22.9 118.47-20.48 119.67-18.05 119.67-14.4L119.67-14.4 119.67 0 115.92 0 115.92-13.95Q115.92-17.85 114.24-19.88 112.57-21.9 109.42-21.9L109.42-21.9Q106.17-21.9 104.34-19.75 102.52-17.6 102.52-13.4L102.52-13.4 102.52 0 98.77 0ZM138.27 0.35L138.27 0.35Q134.77 0.35 132.05-1.35 129.32-3.05 127.77-6 126.22-8.95 126.22-12.75L126.22-12.75Q126.22-16.4 127.77-19.25 129.32-22.1 132.02-23.73 134.72-25.35 138.17-25.35L138.17-25.35Q141.57-25.35 144.25-23.85 146.92-22.35 148.42-19.7 149.92-17.05 149.82-13.65L149.82-13.65Q149.82-13.1 149.77-12.5 149.72-11.9 149.67-11.2L149.67-11.2 130.32-11.2Q130.42-8.85 131.47-7.05 132.52-5.25 134.25-4.23 135.97-3.2 138.17-3.2L138.17-3.2Q141.07-3.2 143.1-4.3 145.12-5.4 146.02-7.45L146.02-7.45 149.27-6.15Q147.77-3 144.92-1.33 142.07 0.35 138.27 0.35ZM130.37-14.45L145.72-14.45Q145.77-16.6 144.8-18.25 143.82-19.9 142.07-20.85 140.32-21.8 138.02-21.8L138.02-21.8Q136.02-21.8 134.37-20.85 132.72-19.9 131.65-18.23 130.57-16.55 130.37-14.45L130.37-14.45ZM170.38-7.45L174.03-8.9Q174.33-7.55 175.3-6.23 176.28-4.9 178-4.03 179.73-3.15 182.43-3.15L182.43-3.15Q186.28-3.15 188.13-4.95 189.98-6.75 189.98-9.2L189.98-9.2Q189.98-11.15 188.93-12.4 187.88-13.65 186.08-14.48 184.28-15.3 182.03-15.95L182.03-15.95Q180.03-16.5 178.05-17.18 176.08-17.85 174.48-18.88 172.88-19.9 171.93-21.55 170.98-23.2 170.98-25.65L170.98-25.65Q170.98-28.6 172.38-30.78 173.78-32.95 176.33-34.15 178.88-35.35 182.28-35.35L182.28-35.35Q185.23-35.35 187.43-34.5 189.63-33.65 191.1-32.13 192.58-30.6 193.28-28.6L193.28-28.6 189.73-27.25Q189.38-28.4 188.38-29.48 187.38-30.55 185.78-31.25 184.18-31.95 182.13-31.95L182.13-31.95Q180.13-31.95 178.5-31.25 176.88-30.55 175.93-29.25 174.98-27.95 174.98-26.1L174.98-26.1Q174.98-24.1 176.1-22.93 177.23-21.75 179.1-21.03 180.98-20.3 183.23-19.65L183.23-19.65Q185.28-19 187.2-18.25 189.13-17.5 190.65-16.4 192.18-15.3 193.08-13.65 193.98-12 193.98-9.6L193.98-9.6Q193.98-6.95 192.73-4.67 191.48-2.4 188.95-1.03 186.43 0.35 182.48 0.35L182.48 0.35Q179.18 0.35 176.68-0.68 174.18-1.7 172.58-3.45 170.98-5.2 170.38-7.45L170.38-7.45ZM201.23 0L201.23-36 204.98-36 204.98-21.6Q206.18-23.4 208.23-24.38 210.28-25.35 212.83-25.35L212.83-25.35Q215.58-25.35 217.73-24.1 219.88-22.85 221.11-20.4 222.33-17.95 222.33-14.3L222.33-14.3 222.33 0 218.33 0 218.33-13.85Q218.33-17.75 216.68-19.83 215.03-21.9 211.88-21.9L211.88-21.9Q208.63-21.9 206.81-19.7 204.98-17.5 204.98-13.3L204.98-13.3 204.98 0 201.23 0ZM241.24 0.35L241.24 0.35Q237.69 0.35 234.89-1.2 232.09-2.75 230.49-5.63 228.89-8.5 228.89-12.45L228.89-12.45Q228.89-16.45 230.51-19.35 232.14-22.25 234.96-23.8 237.79-25.35 241.34-25.35L241.34-25.35Q244.89-25.35 247.71-23.8 250.54-22.25 252.16-19.38 253.79-16.5 253.79-12.55L253.79-12.55Q253.79-8.55 252.14-5.65 250.49-2.75 247.64-1.2 244.79 0.35 241.24 0.35ZM241.19-3.2L241.19-3.2Q243.39-3.2 245.34-4.17 247.29-5.15 248.51-7.23 249.74-9.3 249.74-12.5L249.74-12.5Q249.74-15.75 248.54-17.8 247.34-19.85 245.41-20.83 243.49-21.8 241.29-21.8L241.29-21.8Q239.09-21.8 237.19-20.83 235.29-19.85 234.11-17.78 232.94-15.7 232.94-12.5L232.94-12.5Q232.94-9.25 234.09-7.2 235.24-5.15 237.11-4.17 238.99-3.2 241.19-3.2ZM264.14-5.05L264.14-5.05 264.54-5.1 264.54 10 260.79 10 260.79-25 264.24-25 264.49-20.35Q265.64-22.45 267.89-23.9 270.14-25.35 273.54-25.35L273.54-25.35Q276.79-25.35 279.39-23.78 281.99-22.2 283.49-19.33 284.99-16.45 284.99-12.5L284.99-12.5Q284.99-8.6 283.57-5.73 282.14-2.85 279.57-1.25 276.99 0.35 273.54 0.35L273.54 0.35Q269.94 0.35 267.59-1.2 265.24-2.75 264.14-5.05ZM280.94-12.5L280.94-12.5Q280.94-16.8 278.72-19.33 276.49-21.85 272.74-21.85L272.74-21.85Q270.39-21.85 268.52-20.75 266.64-19.65 265.59-17.55 264.54-15.45 264.54-12.5L264.54-12.5Q264.54-9.6 265.59-7.5 266.64-5.4 268.52-4.28 270.39-3.15 272.74-3.15L272.74-3.15Q276.49-3.15 278.72-5.68 280.94-8.2 280.94-12.5Z" opacity="1" transform="matrix(1,0,0,1,0,0)" fill="black" class="slogan-text-1" id="SvgjsPath1508" stroke-width="7" stroke="black" stroke-linejoin="round"></path></svg></g></svg></g></svg></g></svg></g><g></g></svg></g></svg></g></svg></g></mask><g transform="matrix(1,0,0,1,71.6174109533127,48.36521739130434)"><svg viewBox="0 0 252.28517809337458 150.4695652173913" height="150.4695652173913" width="252.28517809337458"><g><svg viewBox="0 0 252.28517809337458 150.4695652173913" height="150.4695652173913" width="252.28517809337458"><g><svg viewBox="0 0 275.14434782608697 164.10337976371687" height="150.4695652173913" width="252.28517809337458"><g><svg viewBox="0 0 275.14434782608697 164.10337976371687" height="164.10337976371687" width="275.14434782608697"><g id="textblocktransform"><svg viewBox="0 0 275.14434782608697 164.10337976371687" height="164.10337976371687" width="275.14434782608697" id="textblock"><g><svg viewBox="0 0 275.14434782608697 96.31262131467248" height="96.31262131467248" width="275.14434782608697"><g transform="matrix(1,0,0,1,0,0)"><svg width="275.14434782608697" viewBox="-0.6000000000000001 -36.3 114.69 40.8" height="96.31262131467248" data-palette-color="#ffcb73"><path d="M3.4 0.5L3.7-1.8Q5.65-2.1 6.38-2.98 7.1-3.85 7.1-6L7.1-6 7.15-27Q7.15-28.6 6.78-29.15 6.4-29.7 5.3-29.7L5.3-29.7Q4.8-29.7 4.3-29.65 3.8-29.6 3.6-29.6L3.6-29.6 3.5-29.8 3.85-32Q4.45-31.95 6.1-31.9 7.75-31.85 9.45-31.85L9.45-31.85Q10.8-31.85 12.53-32.02 14.25-32.2 14.8-32.3L14.8-32.3 14.6-30.05Q12.95-29.85 12.33-29.4 11.7-28.95 11.58-28.35 11.45-27.75 11.3-25.4L11.3-25.4Q11-21.15 10.85-15.7 10.7-10.25 10.7-6.1L10.7-6.1Q10.7-4.3 11-3.53 11.3-2.75 12.13-2.5 12.95-2.25 14.95-2.25L14.95-2.25Q18-2.25 19.43-2.75 20.85-3.25 21.58-4.7 22.3-6.15 22.9-9.35L22.9-9.35 25.1-9.6 25.25-9.35Q25.1-8.55 24.63-5.75 24.15-2.95 23.8 0.15L23.8 0.15 23.55 0.45Q22.1 0.35 17.57 0.18 13.05 0 10.1 0L10.1 0Q7.75 0 5.83 0.2 3.9 0.4 3.4 0.5L3.4 0.5ZM38.9 0.45Q35.5 0.45 32.87-1.05 30.25-2.55 28.82-5.3 27.4-8.05 27.4-11.65L27.4-11.65Q27.4-15.55 29.17-18.68 30.95-21.8 34.02-23.58 37.1-25.35 40.9-25.35L40.9-25.35Q44.35-25.35 47-23.85 49.65-22.35 51.1-19.63 52.55-16.9 52.55-13.3L52.55-13.3Q52.55-9.4 50.77-6.28 49-3.15 45.87-1.35 42.75 0.45 38.9 0.45L38.9 0.45ZM40.1-1.95Q43.75-1.95 46-4.58 48.25-7.2 48.25-11.55L48.25-11.55Q48.25-14.85 47.17-17.35 46.1-19.85 44.12-21.2 42.15-22.55 39.55-22.55L39.55-22.55Q36-22.55 33.82-19.95 31.65-17.35 31.65-13L31.65-13Q31.65-9.7 32.7-7.2 33.75-4.7 35.67-3.33 37.6-1.95 40.1-1.95L40.1-1.95ZM68.69 0.45Q63.2 0.45 59.92-2.83 56.64-6.1 56.64-11.65L56.64-11.65Q56.64-15.75 58.45-18.85 60.24-21.95 63.52-23.65 66.8-25.35 71.09-25.35L71.09-25.35Q72.64-25.35 74.42-25.15 76.19-24.95 77.47-24.7 78.75-24.45 79.09-24.4L79.09-24.4 79.3-24.1Q79.25-23.85 79.02-22.93 78.8-22 78.57-20.53 78.34-19.05 78.25-17.4L78.25-17.4 75.8-17.2Q75.8-17.4 75.84-17.98 75.89-18.55 75.89-19.3L75.89-19.3Q75.89-21.05 74.55-21.83 73.19-22.6 70.14-22.6L70.14-22.6Q65.69-22.6 63.32-20.13 60.95-17.65 60.95-12.95L60.95-12.95Q60.95-7.9 63.3-4.98 65.64-2.05 69.64-2.05L69.64-2.05Q71.05-2.05 72.19-2.35 73.34-2.65 74.02-2.95 74.69-3.25 74.84-3.35L74.84-3.35 74.84-7.75Q74.84-9 74.42-9.4 74-9.8 72.69-9.8L72.69-9.8 70.05-9.8 69.94-10 70.34-12.2Q70.55-12.2 72.22-12.15 73.89-12.1 75.64-12.1L75.64-12.1Q76.8-12.1 77.92-12.18 79.05-12.25 79.34-12.3L79.34-12.3 79.55-11.2Q78.75-10.6 78.47-9.35 78.19-8.1 78.19-5.05L78.19-5.05Q78.19-2.8 78.44-1.65L78.44-1.65 78.19-1.25Q77.84-1.1 76.57-0.7 75.3-0.3 73.19 0.08 71.09 0.45 68.69 0.45L68.69 0.45ZM96.44 0.45Q93.04 0.45 90.42-1.05 87.79-2.55 86.37-5.3 84.94-8.05 84.94-11.65L84.94-11.65Q84.94-15.55 86.72-18.68 88.49-21.8 91.57-23.58 94.64-25.35 98.44-25.35L98.44-25.35Q101.89-25.35 104.54-23.85 107.19-22.35 108.64-19.63 110.09-16.9 110.09-13.3L110.09-13.3Q110.09-9.4 108.32-6.28 106.54-3.15 103.42-1.35 100.29 0.45 96.44 0.45L96.44 0.45ZM97.64-1.95Q101.29-1.95 103.54-4.58 105.79-7.2 105.79-11.55L105.79-11.55Q105.79-14.85 104.72-17.35 103.64-19.85 101.67-21.2 99.69-22.55 97.09-22.55L97.09-22.55Q93.54-22.55 91.37-19.95 89.19-17.35 89.19-13L89.19-13Q89.19-9.7 90.24-7.2 91.29-4.7 93.22-3.33 95.14-1.95 97.64-1.95L97.64-1.95Z" opacity="1" transform="matrix(1,0,0,1,0,0)" fill="#ffcb73" class="wordmark-text-0" data-fill-palette-color="primary" id="text-0"></path></svg></g></svg></g><g transform="matrix(1,0,0,1,3.5,115.050732550226)"><svg viewBox="0 0 268.14434782608697 49.05264721349088" height="49.05264721349088" width="268.14434782608697"><g transform="matrix(1,0,0,1,0,0)"><svg width="268.14434782608697" viewBox="-1.85 -40 290.84000000000003 54" height="49.05264721349088" data-palette-color="#ffcb73"><path d="M19.6 0.35L19.6 0.35Q15.9 0.35 12.73-0.95 9.55-2.25 7.18-4.63 4.8-7 3.48-10.28 2.15-13.55 2.15-17.5L2.15-17.5Q2.15-21.45 3.48-24.73 4.8-28 7.18-30.38 9.55-32.75 12.73-34.05 15.9-35.35 19.6-35.35L19.6-35.35Q23.25-35.35 26.43-34.05 29.6-32.75 31.95-30.38 34.3-28 35.63-24.73 36.95-21.45 36.95-17.5L36.95-17.5Q36.95-13.55 35.63-10.28 34.3-7 31.95-4.63 29.6-2.25 26.43-0.95 23.25 0.35 19.6 0.35ZM19.6-3.15L19.6-3.15Q23.35-3.15 26.35-4.9 29.35-6.65 31.1-9.88 32.85-13.1 32.85-17.5L32.85-17.5Q32.85-21.95 31.1-25.18 29.35-28.4 26.35-30.13 23.35-31.85 19.6-31.85L19.6-31.85Q15.8-31.85 12.78-30.13 9.75-28.4 8-25.18 6.25-21.95 6.25-17.5L6.25-17.5Q6.25-13.1 8-9.88 9.75-6.65 12.78-4.9 15.8-3.15 19.6-3.15ZM43.75 0L43.75-25 47.2-25 47.4-21.45Q48.6-23.3 50.55-24.33 52.5-25.35 55.1-25.35L55.1-25.35Q57.95-25.35 60.1-24.13 62.25-22.9 63.45-20.48 64.65-18.05 64.65-14.4L64.65-14.4 64.65 0 60.9 0 60.9-13.95Q60.9-17.85 59.23-19.88 57.55-21.9 54.4-21.9L54.4-21.9Q51.15-21.9 49.33-19.75 47.5-17.6 47.5-13.4L47.5-13.4 47.5 0 43.75 0ZM72.76 0L72.76-36 76.51-36 76.51 0 72.76 0ZM85.76 0L85.76-25 89.46-25 89.46 0 85.76 0ZM87.66-30L87.66-30Q86.51-30 85.76-30.75 85.01-31.5 85.01-32.6L85.01-32.6Q85.01-33.75 85.76-34.5 86.51-35.25 87.66-35.25L87.66-35.25Q88.71-35.25 89.49-34.5 90.26-33.75 90.26-32.6L90.26-32.6Q90.26-31.5 89.49-30.75 88.71-30 87.66-30ZM98.77 0L98.77-25 102.22-25 102.42-21.45Q103.62-23.3 105.57-24.33 107.52-25.35 110.12-25.35L110.12-25.35Q112.97-25.35 115.12-24.13 117.27-22.9 118.47-20.48 119.67-18.05 119.67-14.4L119.67-14.4 119.67 0 115.92 0 115.92-13.95Q115.92-17.85 114.24-19.88 112.57-21.9 109.42-21.9L109.42-21.9Q106.17-21.9 104.34-19.75 102.52-17.6 102.52-13.4L102.52-13.4 102.52 0 98.77 0ZM138.27 0.35L138.27 0.35Q134.77 0.35 132.05-1.35 129.32-3.05 127.77-6 126.22-8.95 126.22-12.75L126.22-12.75Q126.22-16.4 127.77-19.25 129.32-22.1 132.02-23.73 134.72-25.35 138.17-25.35L138.17-25.35Q141.57-25.35 144.25-23.85 146.92-22.35 148.42-19.7 149.92-17.05 149.82-13.65L149.82-13.65Q149.82-13.1 149.77-12.5 149.72-11.9 149.67-11.2L149.67-11.2 130.32-11.2Q130.42-8.85 131.47-7.05 132.52-5.25 134.25-4.23 135.97-3.2 138.17-3.2L138.17-3.2Q141.07-3.2 143.1-4.3 145.12-5.4 146.02-7.45L146.02-7.45 149.27-6.15Q147.77-3 144.92-1.33 142.07 0.35 138.27 0.35ZM130.37-14.45L145.72-14.45Q145.77-16.6 144.8-18.25 143.82-19.9 142.07-20.85 140.32-21.8 138.02-21.8L138.02-21.8Q136.02-21.8 134.37-20.85 132.72-19.9 131.65-18.23 130.57-16.55 130.37-14.45L130.37-14.45ZM170.38-7.45L174.03-8.9Q174.33-7.55 175.3-6.23 176.28-4.9 178-4.03 179.73-3.15 182.43-3.15L182.43-3.15Q186.28-3.15 188.13-4.95 189.98-6.75 189.98-9.2L189.98-9.2Q189.98-11.15 188.93-12.4 187.88-13.65 186.08-14.48 184.28-15.3 182.03-15.95L182.03-15.95Q180.03-16.5 178.05-17.18 176.08-17.85 174.48-18.88 172.88-19.9 171.93-21.55 170.98-23.2 170.98-25.65L170.98-25.65Q170.98-28.6 172.38-30.78 173.78-32.95 176.33-34.15 178.88-35.35 182.28-35.35L182.28-35.35Q185.23-35.35 187.43-34.5 189.63-33.65 191.1-32.13 192.58-30.6 193.28-28.6L193.28-28.6 189.73-27.25Q189.38-28.4 188.38-29.48 187.38-30.55 185.78-31.25 184.18-31.95 182.13-31.95L182.13-31.95Q180.13-31.95 178.5-31.25 176.88-30.55 175.93-29.25 174.98-27.95 174.98-26.1L174.98-26.1Q174.98-24.1 176.1-22.93 177.23-21.75 179.1-21.03 180.98-20.3 183.23-19.65L183.23-19.65Q185.28-19 187.2-18.25 189.13-17.5 190.65-16.4 192.18-15.3 193.08-13.65 193.98-12 193.98-9.6L193.98-9.6Q193.98-6.95 192.73-4.67 191.48-2.4 188.95-1.03 186.43 0.35 182.48 0.35L182.48 0.35Q179.18 0.35 176.68-0.68 174.18-1.7 172.58-3.45 170.98-5.2 170.38-7.45L170.38-7.45ZM201.23 0L201.23-36 204.98-36 204.98-21.6Q206.18-23.4 208.23-24.38 210.28-25.35 212.83-25.35L212.83-25.35Q215.58-25.35 217.73-24.1 219.88-22.85 221.11-20.4 222.33-17.95 222.33-14.3L222.33-14.3 222.33 0 218.33 0 218.33-13.85Q218.33-17.75 216.68-19.83 215.03-21.9 211.88-21.9L211.88-21.9Q208.63-21.9 206.81-19.7 204.98-17.5 204.98-13.3L204.98-13.3 204.98 0 201.23 0ZM241.24 0.35L241.24 0.35Q237.69 0.35 234.89-1.2 232.09-2.75 230.49-5.63 228.89-8.5 228.89-12.45L228.89-12.45Q228.89-16.45 230.51-19.35 232.14-22.25 234.96-23.8 237.79-25.35 241.34-25.35L241.34-25.35Q244.89-25.35 247.71-23.8 250.54-22.25 252.16-19.38 253.79-16.5 253.79-12.55L253.79-12.55Q253.79-8.55 252.14-5.65 250.49-2.75 247.64-1.2 244.79 0.35 241.24 0.35ZM241.19-3.2L241.19-3.2Q243.39-3.2 245.34-4.17 247.29-5.15 248.51-7.23 249.74-9.3 249.74-12.5L249.74-12.5Q249.74-15.75 248.54-17.8 247.34-19.85 245.41-20.83 243.49-21.8 241.29-21.8L241.29-21.8Q239.09-21.8 237.19-20.83 235.29-19.85 234.11-17.78 232.94-15.7 232.94-12.5L232.94-12.5Q232.94-9.25 234.09-7.2 235.24-5.15 237.11-4.17 238.99-3.2 241.19-3.2ZM264.14-5.05L264.14-5.05 264.54-5.1 264.54 10 260.79 10 260.79-25 264.24-25 264.49-20.35Q265.64-22.45 267.89-23.9 270.14-25.35 273.54-25.35L273.54-25.35Q276.79-25.35 279.39-23.78 281.99-22.2 283.49-19.33 284.99-16.45 284.99-12.5L284.99-12.5Q284.99-8.6 283.57-5.73 282.14-2.85 279.57-1.25 276.99 0.35 273.54 0.35L273.54 0.35Q269.94 0.35 267.59-1.2 265.24-2.75 264.14-5.05ZM280.94-12.5L280.94-12.5Q280.94-16.8 278.72-19.33 276.49-21.85 272.74-21.85L272.74-21.85Q270.39-21.85 268.52-20.75 266.64-19.65 265.59-17.55 264.54-15.45 264.54-12.5L264.54-12.5Q264.54-9.6 265.59-7.5 266.64-5.4 268.52-4.28 270.39-3.15 272.74-3.15L272.74-3.15Q276.49-3.15 278.72-5.68 280.94-8.2 280.94-12.5Z" opacity="1" transform="matrix(1,0,0,1,0,0)" fill="#ffcb73" class="slogan-text-1" data-fill-palette-color="secondary" id="text-1"></path></svg></g></svg></g></svg></g></svg></g><g></g></svg></g></svg></g></svg></g><g mask="url(#da9fae74-86f8-4fa0-99f7-5761a606642d)"><g transform="matrix(4.597357384020468, 0, 0, 4.597357384020468, 1, 50.935828994046986)"><svg xmlns="http://www.w3.org/2000/svg" xmlns:xlink="http://www.w3.org/1999/xlink" version="1.1" x="0" y="0" viewBox="7.802 36.32672206954381 85.59700000000001 31.61127793045619" enable-background="new 0 0 100 100" xml:space="preserve" height="31.61127793045619" width="85.59700000000001" class="icon-none" data-fill-palette-color="accent" id="none"><g fill="#ffcb73" data-fill-palette-color="accent"><g fill="#ffcb73" data-fill-palette-color="accent"><path fill-rule="evenodd" clip-rule="evenodd" d="M58.86 64.444L59.347 65.976 59.277 66.036C58.987 65.82 58.651 65.644 58.417 65.379 57.973 64.877 57.587 64.322 57.145 63.808 57.205 63.986 57.271 64.162 57.321 64.342 57.484 64.935 57.651 65.526 57.796 66.121 57.873 66.438 57.608 66.681 57.296 66.64 57.05 66.608 56.892 66.492 56.758 66.288A9.4 9.4 0 0 0 55.932 65.202C55.99 65.472 56.053 65.738 56.104 66.009 56.16 66.307 56.217 66.606 56.248 66.906 56.293 67.338 55.815 67.699 55.4 67.562 55.367 67.551 55.337 67.532 55.303 67.524 54.732 67.393 54.377 67.066 54.318 66.46 54.308 66.359 54.271 66.26 54.243 66.161 54.239 66.149 54.217 66.142 54.195 66.129 54.115 66.473 54.06 66.821 53.95 67.151 53.871 67.382 53.719 67.589 53.589 67.823 52.916 67.514 52.769 66.885 52.596 66.276 52.534 66.054 52.496 65.824 52.418 65.596 52.443 66.054 52.324 66.471 52.136 66.879 51.983 67.21 51.441 67.401 51.127 67.227 50.614 66.942 50.476 66.456 50.401 65.93 50.391 65.853 50.386 65.775 50.374 65.698 50.37 65.677 50.348 65.657 50.395 65.661 50.219 66.24 50.069 66.83 49.855 67.394 49.776 67.604 49.545 67.756 49.382 67.938 48.893 67.434 48.764 66.833 48.556 66.251 48.495 66.534 48.444 66.82 48.371 67.101 48.348 67.189 48.289 67.295 48.214 67.337 47.912 67.504 47.601 67.652 47.288 67.796 47.243 67.817 47.159 67.784 47.108 67.753 46.554 67.417 46.488 67.245 46.614 66.589 46.691 66.192 46.746 65.789 46.76 65.364 46.545 65.707 46.335 66.053 46.113 66.39 45.974 66.601 45.868 66.832 45.557 66.881 45.215 66.934 44.907 66.689 44.978 66.345 45.124 65.635 45.285 64.928 45.439 64.22 45.449 64.174 45.46 64.129 45.429 64.064 45.242 64.329 45.054 64.593 44.869 64.86 44.673 65.143 44.511 65.459 44.277 65.706 44.044 65.951 43.74 66.13 43.467 66.338L43.382 66.295 43.775 64.765C43.292 65.144 42.891 65.637 42.185 65.558A2.88 2.88 0 0 1 42.096 63.692C42.259 63.107 42.565 62.616 42.9 62.143A27 27 0 0 1 44.543 60.04C45.089 59.416 45.504 58.715 45.929 58.013 46.386 57.257 46.761 56.465 47.082 55.645 47.087 55.632 47.083 55.615 47.083 55.573L46.787 55.941C46.346 56.02 46.199 55.766 46.203 55.307 46.006 55.584 45.859 55.803 45.698 56.009 45.656 56.063 45.553 56.122 45.501 56.106 45.257 56.03 45.037 56.079 44.824 56.19 44.611 56.302 44.419 56.283 44.224 56.145 44.084 56.045 43.918 55.979 43.787 55.871 43.572 55.691 43.395 55.748 43.194 55.894 43.021 56.021 42.826 56.117 42.654 56.217 42.185 55.934 41.997 55.51 42.039 54.974 41.482 55.216 40.971 55.438 40.457 55.658A4 4 0 0 1 40.02 55.82 0.26 0.26 0 0 1 39.854 55.815C39.498 55.66 39.134 55.517 38.795 55.331 38.663 55.258 38.561 55.097 38.49 54.954 38.374 54.719 38.23 54.695 38.018 54.813A3.5 3.5 0 0 1 36.277 55.257C35.771 55.256 35.364 55.069 35.068 54.689 34.909 54.485 34.779 54.444 34.551 54.531 34.293 54.628 34.012 54.667 33.758 54.773 33.327 54.952 32.987 54.736 32.653 54.541 32.281 54.324 31.939 54.057 31.573 53.83A0.42 0.42 0 0 0 31.254 53.788C30.785 53.94 30.333 54.131 29.819 54.107 29.477 54.09 29.032 53.829 28.923 53.508 28.896 53.426 28.881 53.333 28.832 53.267 28.786 53.204 28.701 53.127 28.634 53.128 28.365 53.13 28.098 53.167 27.829 53.177A0.56 0.56 0 0 1 27.536 53.128C27.207 52.94 26.887 52.733 26.565 52.532 26.536 52.513 26.502 52.492 26.488 52.463 26.192 51.851 25.566 51.704 25.018 51.558 24.438 51.403 24.148 51.02 23.895 50.576 23.722 50.27 23.487 50.179 23.179 50.179 22.975 50.178 22.825 50.1 22.675 49.961 22.266 49.583 21.869 49.2 21.559 48.731 21.494 48.633 21.315 48.586 21.181 48.564 20.603 48.465 20.018 48.425 19.464 48.197 19.167 48.074 19.068 47.842 18.942 47.579L21.133 46.973 21.129 46.937C20.786 46.977 20.444 47.033 20.101 47.055 19.253 47.112 18.403 47.198 17.555 47.185 16.821 47.174 16.109 46.958 15.421 46.693 15.373 46.674 15.345 46.603 15.308 46.556 15.372 46.513 15.431 46.447 15.501 46.43A13 13 0 0 1 17.95 46.126C18.427 46.116 18.901 45.946 19.376 45.849L19.362 45.772C19.116 45.796 18.87 45.831 18.624 45.841 17.383 45.896 16.143 45.966 14.902 45.979 14.565 45.983 14.213 45.833 13.893 45.693 13.764 45.636 13.704 45.42 13.603 45.261 14.147 44.922 14.731 44.955 15.305 44.901 15.117 44.901 14.929 44.899 14.742 44.902 14.551 44.906 14.359 44.917 14.168 44.922 13.447 44.941 12.726 44.975 12.004 44.971 11.38 44.969 10.758 44.917 10.135 44.898 9.691 44.885 9.478 44.533 9.122 44.252 9.337 44.142 9.498 44.031 9.676 43.972 10.151 43.815 10.639 43.784 11.14 43.83 11.475 43.862 11.817 43.836 12.137 43.836 11.249 43.78 10.418 43.414 9.55 43.201 9.189 43.113 8.839 42.972 8.475 42.909 8.076 42.842 7.885 42.612 7.802 42.248 8.203 42.024 8.616 42.104 9.034 42.191 9.931 42.379 10.827 42.58 11.731 42.733 12.233 42.817 12.751 42.817 13.262 42.852 13.564 42.872 13.867 42.888 14.175 42.873 13.625 42.771 13.079 42.634 12.525 42.574 11.769 42.491 11.096 42.191 10.421 41.882 9.967 41.674 9.517 41.458 9.063 41.253 8.727 41.102 8.616 40.8 8.503 40.459L15.395 42.098 15.414 42.039C15.129 41.933 14.849 41.809 14.558 41.724 13.003 41.269 11.599 40.476 10.179 39.73 9.803 39.533 9.545 39.109 9.234 38.79L9.272 38.738C10.756 39.222 12.223 39.774 13.73 40.173 15.239 40.571 16.788 40.817 18.319 41.129L18.342 41.041C18.092 40.955 17.841 40.871 17.591 40.782 16.373 40.344 15.14 39.942 13.945 39.449 13.464 39.25 13.057 38.862 12.631 38.541 12.405 38.372 12.207 38.166 12.003 37.968 11.953 37.918 11.932 37.838 11.867 37.714L22.73 40.557 22.756 40.491 17.813 38.374 17.839 38.279C17.868 38.274 17.897 38.266 17.925 38.265 18.856 38.244 19.786 38.233 20.716 38.203 21.282 38.184 21.781 38.429 22.291 38.599 24.058 39.193 25.811 39.825 27.57 40.442 27.601 40.453 27.638 40.451 27.709 40.46L27.391 39.621C27.572 39.632 27.714 39.652 27.856 39.648 29.25 39.615 30.591 39.934 31.931 40.252 33.266 40.569 34.617 40.662 35.983 40.569 36.615 40.525 37.252 40.517 37.881 40.454 38.527 40.39 39.167 40.252 39.814 40.189 40.216 40.151 40.626 40.189 41.033 40.2 41.502 40.213 41.971 40.24 42.44 40.25 44.141 40.286 45.838 40.368 47.511 40.709 47.837 40.775 47.949 40.512 48.05 40.325 48.135 40.169 48.156 39.994 48.199 39.824 48.247 39.63 48.319 39.444 48.387 39.257 48.528 38.863 48.575 38.442 48.713 38.046 48.837 37.688 48.599 37.411 48.304 37.133 48.467 36.847 48.923 36.646 49.218 36.545 50.06 36.26 50.891 36.175 51.63 36.784 51.882 36.992 52.101 37.273 52.252 37.564 52.575 38.185 52.641 38.905 52.975 39.522 53.073 39.701 53.174 39.876 53.263 40.058 53.354 40.245 53.465 40.426 53.651 40.531 53.703 40.561 53.777 40.575 53.835 40.565 54.28 40.485 54.72 40.378 55.167 40.316 55.802 40.226 56.439 40.15 57.078 40.097 58.446 39.982 59.813 39.871 61.182 39.79 61.576 39.767 61.977 39.831 62.37 39.887 63.474 40.039 64.581 40.048 65.693 40.053 67.255 40.06 68.759 39.783 70.254 39.357 71.422 39.024 72.613 38.788 73.867 38.836L73.613 39.656C74.148 39.442 74.633 39.243 75.121 39.054 76.712 38.443 78.301 37.825 79.898 37.234 80.141 37.143 80.428 37.158 80.694 37.155 81.553 37.146 82.411 37.151 83.282 37.151 81.784 38.13 80.031 38.6 78.525 39.563L89.129 36.371 89.196 36.441C89.046 36.624 88.915 36.827 88.741 36.983 88.374 37.313 88.002 37.643 87.595 37.923 87.294 38.131 86.945 38.278 86.604 38.419 85.417 38.911 84.225 39.39 82.976 39.897 84.553 39.667 86.038 39.287 87.496 38.834 88.951 38.381 90.367 37.804 91.88 37.252 91.669 37.506 91.486 37.694 91.341 37.908 91.099 38.262 90.736 38.442 90.38 38.637 89.666 39.031 88.966 39.451 88.233 39.805 87.619 40.101 86.967 40.318 86.333 40.572 86.209 40.62 86.088 40.674 85.966 40.725L85.991 40.8 92.609 38.962C92.562 39.473 92.248 39.735 91.871 39.923 91.158 40.279 90.446 40.647 89.708 40.943 89.255 41.125 88.753 41.186 88.273 41.297 87.947 41.373 87.619 41.443 87.297 41.567 87.783 41.517 88.276 41.504 88.754 41.412 89.977 41.175 91.197 40.917 92.41 40.637A1.86 1.86 0 0 1 93.399 40.689C93.345 41.028 93.218 41.251 92.846 41.361 91.832 41.657 90.835 42.007 89.829 42.329 89.666 42.381 89.491 42.394 89.29 42.433 90.268 42.457 91.262 42.123 92.174 42.734 91.884 43.121 91.59 43.421 91.09 43.442 90.485 43.467 89.881 43.55 89.274 43.561 88.153 43.581 87.031 43.566 85.91 43.588 86.559 43.696 87.246 43.502 87.844 43.89 87.77 44.454 87.291 44.578 86.882 44.628 85.578 44.784 84.265 44.774 82.954 44.662A6 6 0 0 0 82.089 44.64C82.247 44.676 82.407 44.704 82.563 44.75 83.076 44.9 83.6 44.919 84.131 44.938 84.77 44.959 85.406 45.045 86.043 45.119 86.139 45.13 86.226 45.225 86.362 45.31 85.387 45.713 84.466 46.014 83.479 45.993 82.508 45.971 81.538 45.913 80.501 45.867L82.712 46.393C82.639 46.966 82.181 47.076 81.771 47.198 81.359 47.322 80.926 47.384 80.5 47.461 80.336 47.491 80.213 47.549 80.133 47.707 79.87 48.228 79.452 48.629 79.021 48.999 78.87 49.129 78.599 49.114 78.39 49.187A0.75 0.75 0 0 0 78.088 49.375 1.8 1.8 0 0 0 77.834 49.765C77.632 50.157 77.342 50.415 76.906 50.552 76.521 50.673 76.163 50.879 75.797 51.055A0.3 0.3 0 0 0 75.656 51.197C75.402 51.754 74.82 51.923 74.385 52.263 74.308 52.325 74.149 52.284 74.029 52.284 73.759 52.287 73.491 52.285 73.211 52.285 73.185 52.364 73.155 52.444 73.13 52.525 72.971 53.046 72.65 53.265 72.111 53.289 71.654 53.31 71.243 53.156 70.824 53.024 70.682 52.98 70.58 52.975 70.451 53.081 70.131 53.345 69.804 53.604 69.454 53.826 69.095 54.055 68.729 54.284 68.255 54.079 68 53.965 67.71 53.955 67.45 53.867 67.279 53.809 67.189 53.865 67.104 53.992 66.783 54.481 66.329 54.662 65.746 54.684 65.121 54.707 64.573 54.513 64.029 54.269 63.871 54.198 63.782 54.217 63.723 54.364 63.46 55.01 62.792 55.086 62.284 55.384 62.24 55.411 62.151 55.375 62.088 55.352 61.518 55.136 60.946 54.916 60.375 54.698L60.143 54.61C60.119 54.74 60.07 54.858 60.081 54.971 60.115 55.318 59.925 55.535 59.699 55.753 59.586 55.862 59.492 55.899 59.361 55.81 59.34 55.795 59.314 55.786 59.295 55.769 58.835 55.362 58.402 55.453 57.985 55.839 57.778 56.03 57.554 56.054 57.297 55.932 57.103 55.84 56.896 55.788 56.673 55.88 56.623 55.901 56.513 55.845 56.468 55.792 56.307 55.602 56.162 55.396 55.98 55.156L55.876 55.669C55.517 55.883 55.273 55.73 55.042 55.447 55.13 55.622 55.224 55.795 55.304 55.972 55.795 57.062 56.478 58.038 57.147 59.019 57.365 59.338 57.658 59.609 57.927 59.89 58.674 60.666 59.394 61.463 59.979 62.374 60.54 63.245 60.847 64.154 60.458 65.19 59.777 65.291 59.358 64.808 58.86 64.444" fill="#ffcb73" data-fill-palette-color="accent"></path></g></g></svg></g></g></svg></g><defs></defs></svg><rect width="395.52" height="247.2" fill="none" stroke="none" visibility="hidden"></rect></g></svg></g></svg>